<?xml version="1.0" encoding="utf-8"?>
<!-- Generator: Adobe Illustrator 16.0.0, SVG Export Plug-In . SVG Version: 6.00 Build 0)  -->
<!DOCTYPE svg PUBLIC "-//W3C//DTD SVG 1.1//EN" "http://www.w3.org/Graphics/SVG/1.1/DTD/svg11.dtd">
<svg version="1.1" id="Layer_1" xmlns="http://www.w3.org/2000/svg" xmlns:xlink="http://www.w3.org/1999/xlink" x="0px" y="0px"
	 width="30px" height="29.999px" viewBox="0 0 30 29.999" enable-background="new 0 0 30 29.999" xml:space="preserve">
<g>
	<path fill="#FFFFFF" d="M28.736,0H1.264C0.566,0,0,0.565,0,1.263v27.473c0,0.697,0.566,1.263,1.264,1.263h27.473
		c0.697,0,1.264-0.566,1.264-1.263V1.263C30,0.565,29.434,0,28.736,0z M8.965,12.569c0.959-2.358,3.272-4.021,5.976-4.021
		s5.017,1.663,5.977,4.021c0.305,0.75,0.474,1.57,0.474,2.43c0,3.563-2.889,6.452-6.45,6.452c-3.562,0-6.451-2.889-6.451-6.452
		C8.489,14.139,8.658,13.319,8.965,12.569z M26.416,25.454c0,0.531-0.431,0.961-0.961,0.961H4.545c-0.53,0-0.961-0.43-0.961-0.961
		V12.569H6.14c-0.214,0.774-0.329,1.588-0.329,2.43c0,5.042,4.087,9.13,9.13,9.13c5.042,0,9.129-4.087,9.129-9.13
		c0-0.841-0.115-1.656-0.328-2.43h2.675V25.454z M26.416,9.129h-4.485h-1.256V7.896V3.583h4.78c0.53,0,0.961,0.43,0.961,0.961V9.129
		z"/>
</g>
</svg>
