<?xml version="1.0" encoding="utf-8"?>
<!-- Generator: Adobe Illustrator 16.0.0, SVG Export Plug-In . SVG Version: 6.00 Build 0)  -->
<!DOCTYPE svg PUBLIC "-//W3C//DTD SVG 1.1//EN" "http://www.w3.org/Graphics/SVG/1.1/DTD/svg11.dtd">
<svg version="1.1" id="svg2" xmlns="http://www.w3.org/2000/svg" xmlns:xlink="http://www.w3.org/1999/xlink" x="0px" y="0px"
	 width="70.079px" height="91.062px" viewBox="138.148 87.238 70.079 91.062" enable-background="new 138.148 87.238 70.079 91.062"
	 xml:space="preserve">
<g id="layer1" transform="translate(-48.201442,-127.25004)" inkscape:label="Calque 1" inkscape:groupmode="layer">
	<g id="g2993" transform="matrix(1.25,0,0,-1.25,-240.6183,1115.2552)" inkscape:label="rio 2016">
		<g id="g3165">
			<g id="g3167">
				<g id="g3173">
					<g id="g3175">
					</g>
				</g>
			</g>
		</g>
		<g id="g3187">
			<g id="g3189">
				<g id="g3195">
					<g id="g3197">
					</g>
				</g>
			</g>
		</g>
		<g id="g3411" transform="matrix(1.2715068,0,0,1.2715068,-66.642931,-212.64529)">
			<g id="g3044">
				<g id="g3115">
					<g>
						<g id="g3117">
							<g id="g3123" transform="translate(286.9022,650.9248)">
								<path id="path3125" inkscape:connector-curvature="0" fill="#FFFFFF" stroke="#FFFFFF" stroke-miterlimit="10" d="
									M49.542,34.612c-0.165,2.212-2.01,3.955-4.264,3.955c-2.362,0-4.277-1.916-4.277-4.278c0-2.362,1.915-4.277,4.277-4.277
									c0.127,0,0.254,0.006,0.378,0.017c-0.008,0.107-0.014,0.214-0.014,0.323c0,0.134,0.007,0.265,0.019,0.396
									c-0.127-0.013-0.254-0.021-0.384-0.021c-1.967,0-3.563,1.596-3.563,3.563c0,1.967,1.596,3.562,3.563,3.562
									c1.9,0,3.448-1.488,3.553-3.362c0.004-0.068,0.01-0.133,0.01-0.2c0-0.191-0.02-0.377-0.049-0.559
									c-0.209-1.323-1.144-2.404-2.386-2.818c-0.029-0.182-0.049-0.369-0.049-0.56c0-0.068,0.006-0.134,0.01-0.199
									c1.711,0.449,3.003,1.931,3.169,3.741c0.012,0.13,0.019,0.262,0.019,0.396C49.555,34.399,49.55,34.506,49.542,34.612"/>
							</g>
							<g id="g3127" transform="translate(297.7045,638.6206)">
								<path id="path3129" inkscape:connector-curvature="0" fill="#FFFFFF" stroke="#FFFFFF" stroke-miterlimit="10" d="
									M42.67,42.44c-0.113-1.867-1.658-3.346-3.552-3.346c-1.9,0-3.449,1.489-3.553,3.363c-0.004,0.065-0.01,0.131-0.01,0.199
									c0,0.191,0.019,0.377,0.049,0.56c0.209,1.323,1.143,2.403,2.386,2.818c0.029,0.182,0.049,0.368,0.049,0.559
									c0,0.068-0.006,0.133-0.01,0.2c-1.711-0.45-3.003-1.932-3.169-3.742c-0.012-0.13-0.018-0.262-0.018-0.396
									c0-0.109,0.005-0.216,0.013-0.323c0.165-2.21,2.01-3.954,4.264-3.954c2.249,0,4.091,1.736,4.264,3.942
									C43.137,42.34,42.9,42.38,42.67,42.44 M38.734,46.198c0.012,0.13,0.019,0.262,0.019,0.396c0,0.109-0.005,0.216-0.013,0.323
									c0.124,0.011,0.25,0.018,0.378,0.018c0.12,0,0.238-0.007,0.356-0.016c0.243-0.02,0.48-0.059,0.712-0.119
									c1.727-0.443,3.031-1.937,3.193-3.762c-0.257,0.026-0.504,0.081-0.742,0.158c-0.205,1.341-1.154,2.437-2.417,2.848
									c-0.238,0.078-0.485,0.132-0.742,0.158c-0.119,0.012-0.238,0.018-0.36,0.018C38.988,46.219,38.86,46.212,38.734,46.198"/>
							</g>
							<g id="g3131" transform="translate(312.3561,650.9569)">
								<path id="path3133" inkscape:connector-curvature="0" fill="#FFFFFF" stroke="#FFFFFF" stroke-miterlimit="10" d="
									M33.349,34.592c-0.178,2.201-2.018,3.932-4.264,3.932c-2.249,0-4.091-1.737-4.263-3.942c0.243-0.021,0.481-0.06,0.711-0.12
									c0.114,1.867,1.658,3.346,3.552,3.346c1.893,0,3.436-1.477,3.551-3.341c0.004-0.074,0.012-0.146,0.012-0.222
									c0-0.182-0.018-0.361-0.045-0.537c-0.202-1.332-1.14-2.421-2.388-2.839c-0.028-0.176-0.045-0.354-0.045-0.536
									c0-0.075,0.006-0.149,0.011-0.222c1.715,0.454,3.008,1.946,3.164,3.763c0.011,0.122,0.018,0.247,0.018,0.372
									C33.364,34.363,33.358,34.478,33.349,34.592 M29.473,30.706c-0.011-0.124-0.018-0.248-0.018-0.373
									c0-0.118,0.007-0.232,0.016-0.347c-0.127-0.011-0.256-0.018-0.386-0.018c-0.12,0-0.239,0.006-0.356,0.015
									c-0.244,0.021-0.481,0.06-0.711,0.12c-1.727,0.442-3.031,1.937-3.192,3.761c0.256-0.026,0.504-0.08,0.742-0.158
									c0.204-1.341,1.154-2.437,2.416-2.848c0.238-0.077,0.486-0.132,0.743-0.158c0.117-0.012,0.237-0.018,0.359-0.018
									C29.217,30.683,29.346,30.692,29.473,30.706"/>
							</g>
							<g id="g3135" transform="translate(323.1744,638.6498)">
								<path id="path3137" inkscape:connector-curvature="0" fill="#FFFFFF" stroke="#FFFFFF" stroke-miterlimit="10" d="
									M26.467,42.421c-0.113-1.865-1.657-3.344-3.551-3.344c-1.893,0-3.436,1.478-3.551,3.341
									c-0.005,0.074-0.011,0.147-0.011,0.222c0,0.183,0.017,0.361,0.045,0.537c0.201,1.333,1.139,2.423,2.387,2.839
									c0.027,0.176,0.045,0.355,0.045,0.537c0,0.076-0.008,0.148-0.012,0.222c-1.714-0.453-3.006-1.945-3.164-3.762
									c-0.011-0.124-0.018-0.248-0.018-0.374c0-0.117,0.007-0.232,0.016-0.346c0.176-2.199,2.017-3.931,4.262-3.931
									c2.248,0,4.091,1.736,4.264,3.94C26.934,42.323,26.697,42.362,26.467,42.421 M22.528,46.181
									c0.011,0.122,0.018,0.247,0.018,0.372c0,0.117-0.006,0.232-0.015,0.346c0.126,0.012,0.254,0.019,0.385,0.019
									c0.12,0,0.238-0.007,0.356-0.017c0.244-0.02,0.481-0.059,0.712-0.119c1.727-0.444,3.03-1.94,3.192-3.763
									c-0.257,0.026-0.505,0.08-0.742,0.157c-0.203,1.343-1.153,2.439-2.416,2.85c-0.237,0.076-0.485,0.131-0.742,0.156
									c-0.119,0.013-0.238,0.018-0.36,0.018C22.784,46.202,22.655,46.194,22.528,46.181"/>
							</g>
							<g id="g3139" transform="translate(326.1107,661.7951)">
								<path id="path3141" inkscape:connector-curvature="0" fill="#FFFFFF" stroke="#FFFFFF" stroke-miterlimit="10" d="
									M24.598,27.697c-2.248,0-4.091-1.736-4.263-3.941c0.244-0.02,0.481-0.059,0.712-0.119c0.114,1.865,1.657,3.344,3.551,3.344
									c1.968,0,3.562-1.595,3.562-3.562c0-1.967-1.594-3.563-3.562-3.563c-0.121,0-0.241,0.006-0.36,0.018
									c-0.257,0.026-0.504,0.08-0.742,0.157c-1.262,0.411-2.211,1.507-2.415,2.85c-0.237,0.076-0.485,0.131-0.742,0.156
									c0.16-1.822,1.465-3.319,3.191-3.762c0.23-0.059,0.468-0.098,0.712-0.119c0.117-0.009,0.237-0.016,0.356-0.016
									c2.363,0,4.278,1.915,4.278,4.278C28.877,25.781,26.961,27.697,24.598,27.697"/>
							</g>
						</g>
					</g>
				</g>
				
					<path id="path3219" sodipodi:nodetypes="ccccccccccccccccccccccccccccccccccccccccccccccccccccccccccccccccccccccccccccsccccccccccccccccsscccccccccscc" inkscape:connector-curvature="0" fill="#FFFFFF" stroke="#FFFFFF" stroke-miterlimit="10" d="
					M330.345,699.672c0.02,0.526,0.449,0.952,0.957,0.952c0.509,0,0.907-0.426,0.888-0.952c-0.019-0.526-0.448-0.951-0.956-0.951
					C330.725,698.722,330.327,699.146,330.345,699.672 M337.104,694.613c-1.038-0.017-2.029,1.614-1.943,2.678
					c0.039,0.48,0.299,0.844,0.849,0.842c1.049-0.004,1.964-1.462,1.927-2.453C337.918,695.14,337.699,694.622,337.104,694.613
					 M336.65,699.592c-0.887,0.033-1.692-0.457-2.216-1.208c-0.274-0.393-0.666-1.078-1.107-1.848
					c-0.567-0.991-1.139-1.974-1.545-1.966c-0.253,0.004-0.326,0.248-0.339,0.539c-0.035,0.758,0.014,1.509,0.008,2.267
					c-0.001,0.21,0.012,0.372-0.141,0.472c-0.23,0.15-0.737,0.154-1.049-0.248c-0.646-0.832-1.282-1.718-2.009-2.484
					c-0.305-0.321-0.643-0.561-1.091-0.562c-0.292,0-0.487,0.046-0.792,0.404c-0.417,0.489-0.798,1.3-0.947,1.679
					c-0.024,0.062,0.009,0.078,0.033,0.085c1.66,0.484,3.675,1.562,3.646,3.644c-0.021,1.417-1.078,2.326-2.507,2.375
					c-1.617,0.054-3.159-0.738-4.08-2.067c-1.531-2.209-1.237-5.052-0.788-7.008c0.058-0.254,0.258-0.362,0.487-0.362
					c0.547,0.001,1.19,0.662,1.04,1.216c-0.78,2.898-0.579,4.535,0.182,5.591c0.52,0.719,1.451,1.184,2.349,1.193
					c0.964,0.01,1.986-0.419,1.959-1.537c-0.034-1.382-1.786-1.809-2.898-1.916c-0.307-0.029-0.61-0.141-0.804-0.399
					c-0.258-0.341-0.235-0.758-0.111-1.182c0.218-0.748,0.553-1.328,0.965-1.988c0.343-0.55,0.949-1.116,1.657-1.151
					c1.043-0.052,1.668,0.594,2.247,1.228c0.393,0.428,0.718,0.858,1.095,1.309c0.027,0.032,0.038,0.017,0.038-0.009
					c-0.017-1.139-0.01-2.559,1.323-2.528c0.723,0.018,1.21,0.536,1.625,1.045c0.345,0.423,0.64,0.939,0.94,1.451
					c0.021,0.032,0.035,0.047,0.047-0.001c0.281-1.223,1.304-2.464,2.633-2.495c1.804-0.041,2.922,1.891,2.81,3.457
					C339.212,697.976,338.176,699.538,336.65,699.592 M348.657,694.608c-1.215-0.002-2,1.053-2.002,2.146
					c-0.002,0.799,0.447,1.385,1.293,1.387c1.215,0.003,2.02-1.073,2.022-2.166C349.971,695.176,349.502,694.61,348.657,694.608
					 M348.623,699.592c-1.663-0.007-2.99-1.43-3.28-2.974c-0.114-0.606-0.356-0.987-0.812-1.384
					c-0.556-0.486-1.216-0.697-1.923-0.689c-0.344,0.004-0.9,0.111-0.973,0.554c-0.044,0.256,0.162,0.506,0.347,0.694
					c0.338,0.344,0.592,0.56,0.941,0.893c0.568,0.543,1.093,1.006,1.59,1.633c0.563,0.71,0.962,1.489,0.917,2.293
					c-0.07,1.253-0.999,2.065-2.309,2.06c-0.909-0.004-1.759-0.369-2.414-0.949c-0.141-0.123-0.276-0.288-0.366-0.468
					c-0.07-0.139-0.113-0.288-0.111-0.431c0.002-0.227,0.207-0.426,0.426-0.427c0.159,0,0.339,0.072,0.524,0.229
					c0.373,0.316,0.853,0.584,1.353,0.602c0.964,0.036,1.414-0.575,1.443-1.23c0.022-0.508-0.201-0.942-0.503-1.322
					c-0.426-0.533-0.832-0.879-1.323-1.327c-0.434-0.394-0.826-0.731-1.221-1.14c-0.475-0.491-0.836-0.972-0.807-1.641
					c0.041-0.964,1.012-1.429,1.842-1.435c1.345-0.01,2.658,0.758,3.535,1.732c0.013,0.015,0.024,0.023,0.033,0
					c0.424-1.022,1.381-1.732,2.498-1.732c1.875,0,3.331,1.851,3.303,3.601C351.308,698.209,350.162,699.599,348.623,699.592
					 M360.008,695.181c-0.193-0.361-0.582-0.557-0.976-0.578c-1.174-0.062-1.943,0.926-2.155,2.093
					c0.466,0.28,1.003,0.469,1.555,0.468c0.56-0.003,1.052-0.245,1.354-0.614C360.094,696.174,360.247,695.631,360.008,695.181
					 M359.095,698.623c-0.766,0.001-1.52-0.234-2.217-0.673c0.318,1.263,1.21,2.224,2.363,2.921
					c0.403,0.244,0.809,0.479,0.976,0.928c0.092,0.25,0.066,0.624-0.273,0.649c-0.237,0.018-0.475-0.118-0.67-0.227
					c-1.987-1.116-3.498-2.925-3.8-5.207c-0.53-0.528-0.995-1.049-1.471-1.67c-0.004-0.004-0.006-0.002-0.006,0.001v4.139
					c0,0.286-0.165,0.396-0.367,0.391c-0.178-0.003-0.431-0.126-0.558-0.206l-0.944-0.597c-0.307-0.195-0.422-0.352-0.394-0.61
					c0.046-0.441,0.543-0.497,0.907-0.285l0.001-4.594c0-0.19,0.103-0.372,0.319-0.371c0.197,0.001,0.363,0.108,0.556,0.299
					c0.621,0.617,1.264,1.449,2.027,2.187c0.274-1.388,1.354-2.566,2.861-2.566c1.677,0,3.062,1.593,3.051,3.163
					C361.447,697.586,360.386,698.623,359.095,698.623"/>
				<g id="g3035">
					<g id="g3143">
						<g id="g3145">
							<g id="g3151">
								<g id="g3153">
									<path id="path3163" inkscape:connector-curvature="0" fill="#FFFFFF" stroke="#FFFFFF" stroke-miterlimit="10" d="
										M337.46,733.664c-0.134,0-0.272-0.006-0.409-0.018c-1.585-0.128-3.051-0.845-4.421-1.783
										c-4.358-2.986-7.835-8.716-8.595-14.035c-0.336-2.338-0.236-4.686,0.682-6.831c1.627-3.402,5.524-3.202,7.95-1.51
										c1.205,0.841,2.335,1.882,3.428,2.82c0.337,0.29,0.671,0.548,0.992,0.791c0.732-0.757,1.525-1.582,2.401-2.511
										c3.564-3.769,7.582-5.245,11.043-5.294c4.51-0.059,9.301,2.932,9.305,8.031c0.004,4.51-4.025,8.768-7.841,10.087
										c-0.335,0.131-0.665,0.238-0.982,0.327c-1.309,0.366-2.662,0.599-4.375,0.682c-0.574,0.028-0.672,0.033-1.338,0.027
										c-0.239,0-0.759-0.032-0.855-0.027c-0.152,0.008-0.246,0.077-0.164,0.309c0.398,1.121,0.157,2.052-0.745,2.274
										c-0.893,0.219-1.494-0.697-1.738-1.209c-0.157-0.341-0.466-0.515-0.4,0.054c0.249,2.234-0.297,5.738-1.774,7.095
										C339.005,733.469,338.25,733.664,337.46,733.664z M337.032,732.518c0.079,0.004,0.157,0.003,0.237,0
										c0.186-0.006,0.373-0.037,0.564-0.082c2.468-0.578,1.975-7.558,0.182-12.198c-0.265-0.688-0.693-1.58-1.219-2.547
										c-1.083,1.707-2.302,3.284-4.221,4.593c-0.147,0.102-0.249,0.209-0.245,0.327c0.01,0.274,0.194,0.31,0.391,0.973
										c0.239,0.796,0.205,1.722-0.655,2.001c-0.672,0.221-1.193-0.028-1.61-0.519c-0.1-0.119-0.213-0.398-0.318-0.3
										c-0.098,0.051,0.075,0.492,0.109,0.591c0.703,1.905,1.866,3.751,3.339,5.248c0.007,0.008,0.02,0.01,0.027,0.018
										C334.747,731.669,335.845,732.461,337.032,732.518L337.032,732.518z M348.375,722.404c0.799-0.006,1.579-0.099,2.256-0.245
										c2.524-0.545,6.19-2.48,6.103-5.476c-0.001-0.009,0-0.018,0-0.027c-0.001-0.003,0.001-0.006,0-0.009
										c-0.119-0.703-0.269-0.861-0.682-0.519c-0.431,0.359-1.156,0.562-1.683,0.009c-0.918-0.961-0.132-2.247-0.445-3.802
										c-2.014-0.019-4.616,0.745-6.758,1.947c-2.614,1.466-4.123,3.481-3.948,5.194
										C343.439,721.683,345.979,722.421,348.375,722.404z M354.833,721.339c0.136-0.14,0.267-0.272,0.391-0.418
										c0.247-0.289,0.468-0.593,0.664-0.9c-0.196,0.307-0.417,0.612-0.664,0.9C355.101,721.065,354.967,721.201,354.833,721.339z
										 M331.129,717.519c1.253,0.055,2.262-0.766,4.057-2.492c-1.768-2.636-3.968-5.05-5.712-5.003
										c-0.855,0.023-1.252,0.494-1.555,1.11c-0.006,0.015-0.012,0.03-0.018,0.046c-0.881,2.311,0.112,5.781,2.638,6.249
										C330.744,717.476,330.939,717.511,331.129,717.519z M341.198,714.781c1.301-0.027,2.658-0.627,4.248-1.919
										c1.019-0.827,2.603-2.394,4.157-4.12c-1.374-0.241-2.908-0.161-4.348,0.118c-0.985,0.24-1.803,0.625-2.465,1.055
										c-1.585,1.026-2.854,2.613-3.911,4.321C339.661,714.61,340.418,714.798,341.198,714.781z M336.35,713.954
										c0.541-0.48,1.06-0.926,1.564-1.337C337.41,713.027,336.892,713.474,336.35,713.954z M343.945,709.169
										c0.114-0.033,0.23-0.06,0.345-0.091C344.175,709.109,344.06,709.136,343.945,709.169z M350.485,708.951
										c-0.134-0.04-0.272-0.076-0.409-0.109c-0.141-0.033-0.275-0.065-0.418-0.091c0.14,0.026,0.281,0.058,0.418,0.091
										C350.215,708.875,350.35,708.911,350.485,708.951z"/>
								</g>
							</g>
						</g>
					</g>
					<path id="path3185" inkscape:connector-curvature="0" fill="#FFFFFF" stroke="#FFFFFF" stroke-miterlimit="10" d="
						M337.055,733.642c-1.585-0.128-3.057-0.839-4.428-1.777l0,0c-4.358-2.986-7.828-8.72-8.588-14.038l0,0
						c-0.336-2.338-0.243-4.681,0.675-6.826l0,0c1.626-3.402,5.527-3.206,7.953-1.515l0,0c-6.291-2.391-6.434,7.149-2.13,7.945l0,0
						c1.65,0.383,2.673-0.493,4.985-2.735l0,0c2.253-2.06,4.141-3.555,5.94-4.533l0,0c1.046-0.569,2.437-1.056,3.914-1.329l0,0
						c-1.038,0.237-1.9,0.631-2.588,1.077l0,0c-1.595,1.033-2.868,2.638-3.929,4.358l0,0c-1.85,2.991-3.133,5.861-6.286,8.014l0,0
						c-0.147,0.101-0.249,0.206-0.245,0.325l0,0c0.01,0.274,0.195,0.314,0.391,0.977l0,0c0.238,0.796,0.209,1.72-0.651,1.999l0,0
						c-0.672,0.221-1.193-0.03-1.61-0.521l0,0c-0.1-0.119-0.211-0.394-0.316-0.296l0,0c-0.098,0.051,0.075,0.495,0.109,0.594l0,0
						c1.096,2.972,3.303,5.794,6.081,7.387l0,0c1.181,0.679,2.27,0.849,3.297,0.192l0,0c-0.619,0.523-1.377,0.717-2.167,0.717l0,0
						C337.328,733.661,337.193,733.654,337.055,733.642"/>
					<path id="path3207" inkscape:connector-curvature="0" fill="#FFFFFF" stroke="#FFFFFF" stroke-miterlimit="10" d="
						M356.732,716.649c-0.119-0.703-0.265-0.865-0.679-0.523l0,0c-0.43,0.359-1.153,0.565-1.679,0.012l0,0
						c-1.288-1.349,0.785-3.34-1.545-5.812l0,0c-2.573-2.734-8.377-1.79-11.367-0.163l0,0c-1.799,0.978-3.687,2.473-5.94,4.533l0,0
						c1.073-1.079,2.414-2.468,3.962-4.107l0,0c3.564-3.769,7.588-5.248,11.048-5.296l0,0c4.511-0.059,9.298,2.93,9.302,8.029l0,0
						c0.004,4.51-4.021,8.774-7.837,10.093l0,0C354.789,722.029,357.17,719.221,356.732,716.649"/>
				</g>
				
					<path id="path3219-5" sodipodi:nodetypes="cccccccccccccccccccccccccccccccc" inkscape:connector-curvature="0" fill="#FFFFFF" stroke="#FFFFFF" stroke-miterlimit="10" d="
					M364.636,693.132l-0.132,0.911c-0.023,0.165-0.037,0.284-0.044,0.356h-0.003c-0.013-0.052-0.034-0.128-0.068-0.221l-0.353-1.046
					h-0.16l-0.337,0.981c-0.037,0.108-0.063,0.203-0.086,0.286h-0.002c-0.006-0.108-0.021-0.224-0.038-0.369l-0.106-0.898h-0.139
					l0.195,1.405h0.176l0.341-0.998c0.022-0.072,0.055-0.173,0.081-0.269h0.001c0.026,0.094,0.047,0.164,0.078,0.249l0.348,1.018
					h0.182l0.207-1.405H364.636z M362.459,694.427v-1.295h-0.133v1.295h-0.437v0.111h1.005v-0.111H362.459z"/>
			</g>
		</g>
	</g>
</g>
<g id="layer1_1_" transform="translate(-48.201442,-127.25004)" inkscape:label="Calque 1" inkscape:groupmode="layer">
	<g id="g2993_1_" transform="matrix(1.25,0,0,-1.25,-240.6183,1115.2552)" inkscape:label="rio 2016">
		<g id="g3165_1_">
			<g id="g3167_1_">
				<g id="g3173_1_">
					<g id="g3175_1_">
					</g>
				</g>
			</g>
		</g>
		<g id="g3187_1_">
			<g id="g3189_1_">
				<g id="g3195_1_">
					<g id="g3197_1_">
					</g>
				</g>
			</g>
		</g>
	</g>
</g>
</svg>
